<?xml version="1.0" encoding="UTF-8" standalone="no"?>
<!-- Created with Inkscape (http://www.inkscape.org/) -->

<svg
   xmlns:dc="http://purl.org/dc/elements/1.1/"
   xmlns:cc="http://creativecommons.org/ns#"
   xmlns:rdf="http://www.w3.org/1999/02/22-rdf-syntax-ns#"
   xmlns:svg="http://www.w3.org/2000/svg"
   xmlns="http://www.w3.org/2000/svg"
   xmlns:sodipodi="http://sodipodi.sourceforge.net/DTD/sodipodi-0.dtd"
   xmlns:inkscape="http://www.inkscape.org/namespaces/inkscape"
   width="24"
   height="24"
   viewBox="0 0 6.3499999 6.3499999"
   version="1.1"
   id="svg8"
   inkscape:version="0.92.4 (5da689c313, 2019-01-14)"
   sodipodi:docname="ahh.svg"
   inkscape:export-filename="C:\Users\littlePig87\git\baduibattles\quarantine\web\ahh.png"
   inkscape:export-xdpi="96.000008"
   inkscape:export-ydpi="96.000008">
  <defs
     id="defs2" />
  <sodipodi:namedview
     id="base"
     pagecolor="#ffffff"
     bordercolor="#666666"
     borderopacity="1.0"
     inkscape:pageopacity="0.0"
     inkscape:pageshadow="2"
     inkscape:zoom="16"
     inkscape:cx="-2.6649802"
     inkscape:cy="17.87998"
     inkscape:document-units="mm"
     inkscape:current-layer="g924"
     showgrid="false"
     units="px"
     inkscape:snap-intersection-paths="true"
     inkscape:snap-bbox="true"
     inkscape:snap-bbox-midpoints="true"
     inkscape:snap-object-midpoints="true"
     inkscape:object-paths="true"
     inkscape:window-width="1920"
     inkscape:window-height="1017"
     inkscape:window-x="-8"
     inkscape:window-y="-8"
     inkscape:window-maximized="1"
     inkscape:snap-global="false" />
  <metadata
     id="metadata5">
    <rdf:RDF>
      <cc:Work
         rdf:about="">
        <dc:format>image/svg+xml</dc:format>
        <dc:type
           rdf:resource="http://purl.org/dc/dcmitype/StillImage" />
        <dc:title></dc:title>
      </cc:Work>
    </rdf:RDF>
  </metadata>
  <g
     inkscape:label="Layer 1"
     inkscape:groupmode="layer"
     id="layer1"
     transform="translate(0,-290.65001)">
    <g
       aria-label=" 🔥 "
       transform="matrix(16.624849,0,0,15.326509,-73.809827,-4318.6105)"
       style="font-style:normal;font-variant:normal;font-weight:normal;font-stretch:normal;font-size:1.4309057px;line-height:1.25;font-family:'AR BLANCA';-inkscape-font-specification:'AR BLANCA';letter-spacing:0px;word-spacing:0px;fill:#000000;fill-opacity:1;stroke:none;stroke-width:0.01657532"
       id="text860">
      <g
         id="g924"
         transform="matrix(0.32493735,0,0,0.36262486,2.8561374,192.15852)"
         style="stroke-width:0.04828732">
        <path
           inkscape:connector-curvature="0"
           id="rect833"
           d="m 11.858856,271.77032 v 9.73274 4.03127 l 3.077331,-3.07733 2.008663,5.12165 2.074292,-0.90743 -2.026233,-5.16816 h 4.599203 l -2.850989,-2.85099 z"
           style="opacity:1;fill:#ffffff;fill-opacity:0.9813084;fill-rule:nonzero;stroke:#000000;stroke-width:0.58264148;stroke-linecap:square;stroke-linejoin:miter;stroke-miterlimit:4;stroke-dasharray:none;stroke-opacity:1;paint-order:normal"
           transform="matrix(0.06015092,0,0,0.06524643,4.4397292,281.77392)" />
        <g
           style="stroke-width:0.0309941"
           transform="matrix(1.5579533,0,0,1.5579533,-2.0323446,-167.85881)"
           id="g915">
          <path
             style="font-style:normal;font-variant:normal;font-weight:normal;font-stretch:normal;font-size:1.4309057px;line-height:1.25;font-family:'AR BLANCA';-inkscape-font-specification:'AR BLANCA';letter-spacing:0px;word-spacing:0px;opacity:1;fill:#fff030;fill-opacity:1;fill-rule:nonzero;stroke:none;stroke-width:0;stroke-linecap:square;stroke-linejoin:miter;stroke-miterlimit:4;stroke-dasharray:none;stroke-opacity:1;paint-order:normal"
             d="m 4.6987926,299.98049 h 0.042931 v 0.0583 h -0.042931 z"
             id="rect893-2"
             inkscape:connector-curvature="0" />
          <path
             style="opacity:1;fill:#ffb030;fill-opacity:1;fill-rule:nonzero;stroke:none;stroke-width:0;stroke-linecap:square;stroke-linejoin:miter;stroke-miterlimit:4;stroke-dasharray:none;stroke-opacity:1;paint-order:normal"
             d="m 4.7434032,299.93459 0.1310243,0.0602 0.017462,0.0793 0.049605,-0.003 -2.137e-4,0.11959 -0.046371,0.0997 -0.1054346,0.0404 -0.100151,-0.0419 -0.033321,-0.0489 0.01656,-0.15245 0.076106,-0.0536 z"
             id="rect876"
             inkscape:connector-curvature="0"
             sodipodi:nodetypes="cccccccccccc" />
          <path
             style="opacity:1;fill:#fff030;fill-opacity:1;fill-rule:nonzero;stroke:none;stroke-width:0;stroke-linecap:square;stroke-linejoin:miter;stroke-miterlimit:4;stroke-dasharray:none;stroke-opacity:1;paint-order:normal"
             d="m 4.752747,300.24234 h 0.080182 v 0.0707 H 4.752747 Z"
             id="rect893"
             inkscape:connector-curvature="0" />
          <path
             d="m 4.9414942,300.07113 v 0.11145 q 0,0.0205 -0.00534,0.0394 -0.00534,0.0189 -0.014986,0.0355 -0.00965,0.0165 -0.023254,0.03 -0.013608,0.0136 -0.030144,0.0233 -0.016536,0.01 -0.035484,0.015 -0.018948,0.005 -0.039446,0.005 -0.020498,0 -0.039446,-0.005 -0.018948,-0.005 -0.035484,-0.015 -0.016536,-0.01 -0.030145,-0.0233 -0.013436,-0.0134 -0.023082,-0.03 -0.00965,-0.0165 -0.014986,-0.0355 -0.00534,-0.019 -0.00534,-0.0394 0,-0.0172 0.00345,-0.0341 0.00345,-0.0171 0.00999,-0.0329 0.00672,-0.0159 0.016192,-0.0301 0.00965,-0.0145 0.021876,-0.0267 h -0.014297 v -0.0496 q 0,-0.007 0.00207,-0.0143 0.00224,-0.007 0.0062,-0.0131 0.00396,-0.006 0.00947,-0.0107 0.00551,-0.005 0.012402,-0.008 0.00637,-0.003 0.012058,-0.003 0.00586,-6.9e-4 0.011885,-6.9e-4 h 0.00775 v -0.0248 h 0.014986 q 0.00879,0 0.017398,5.2e-4 0.00861,3.4e-4 0.017226,0.002 0.018087,0.003 0.033934,0.0122 0.01602,0.009 0.028594,0.0215 0.012747,0.0126 0.021532,0.0286 0.00878,0.016 0.012402,0.0339 0.00172,0.008 0.00207,0.0164 3.445e-4,0.008 3.445e-4,0.0164 v 0.008 q 0.00982,-0.002 0.019465,-0.003 0.00965,-6.9e-4 0.019465,-6.9e-4 z m -0.024805,0.113 v -0.0884 q -0.014986,0 -0.027044,0.007 -0.012058,0.007 -0.021876,0.0174 l -5.168e-4,6.8e-4 v -0.0618 q 0,-0.006 -6.89e-4,-0.011 -6.89e-4,-0.006 -0.00189,-0.011 -0.00362,-0.0169 -0.012747,-0.031 -0.00913,-0.0141 -0.022049,-0.0243 -0.012919,-0.0103 -0.028766,-0.016 -0.015848,-0.006 -0.032901,-0.006 v 0.002 q 0,0.0138 -0.00293,0.0281 -0.00293,0.0141 -0.00861,0.0276 -0.00551,0.0134 -0.013436,0.0257 -0.00792,0.0121 -0.017742,0.0217 -0.00396,0.004 -0.0081,0.008 -0.00396,0.004 -0.00775,0.008 -0.00913,0.0103 -0.016709,0.022 -0.00741,0.0117 -0.012747,0.0246 -0.00534,0.0127 -0.00827,0.0264 -0.00276,0.0134 -0.00276,0.0274 0,0.0308 0.012402,0.0568 0.012402,0.0258 0.037035,0.0444 v -0.0372 q 0,-0.0105 0.00276,-0.0181 0.00276,-0.008 0.00689,-0.0136 0.00413,-0.006 0.00896,-0.0115 0.00482,-0.006 0.00896,-0.0115 0.00413,-0.006 0.00689,-0.0138 0.00276,-0.008 0.00276,-0.0181 0.015331,0 0.028767,0.006 0.013608,0.006 0.023599,0.016 0.010163,0.01 0.01602,0.0236 0.00586,0.0134 0.00586,0.0288 0.00792,-0.006 0.01757,-0.009 0.00965,-0.003 0.019637,-0.003 v 0.062 q 0.011369,-0.008 0.020498,-0.0195 0.00913,-0.0108 0.015503,-0.0234 0.00655,-0.0128 0.00999,-0.0265 0.00345,-0.0138 0.00345,-0.0281 z m -0.1238512,0.0603 q -0.00775,0 -0.014469,0.003 -0.00672,0.003 -0.011713,0.008 -0.005,0.005 -0.00792,0.0117 -0.00293,0.007 -0.00293,0.0145 v 0.0189 q 0.018087,0.006 0.037207,0.006 0.01912,0 0.037035,-0.006 v -0.0313 l -0.037207,0.0124 z m -0.086644,-0.2353 v 0.0248 q 0.00517,0 0.00965,-0.002 0.00448,-0.002 0.00775,-0.005 0.00345,-0.003 0.00534,-0.008 0.00207,-0.004 0.00207,-0.01 v -0.0246 h -0.00258 q -0.00448,0 -0.00861,0.002 -0.00396,0.002 -0.00706,0.006 -0.00293,0.003 -0.00482,0.008 -0.00172,0.004 -0.00172,0.009 z"
             style="line-height:1.20000005;fill:#000000;fill-opacity:1;stroke-width:0.0309941"
             id="path873"
             inkscape:connector-curvature="0" />
        </g>
      </g>
    </g>
  </g>
</svg>
